<svg width="52" height="73" viewBox="0 0 52 73" fill="none" xmlns="http://www.w3.org/2000/svg">
<path d="M46.5267 24.3304C48.8242 22.6282 50.5213 20.2551 51.3775 17.5472C52.2338 14.8393 52.2059 11.9338 51.2978 9.24246C50.3896 6.55109 48.6472 4.21021 46.3175 2.55141C43.9877 0.892618 41.1887 0 38.3168 0H13.6872C10.8153 0 8.01626 0.892618 5.6865 2.55141C3.35673 4.21021 1.61437 6.55109 0.706208 9.24246C-0.201951 11.9338 -0.229861 14.8393 0.626432 17.5472C1.48272 20.2551 3.17981 22.6282 5.47729 24.3304C3.73775 25.6182 2.33385 27.2969 1.38187 29.2274C0.429894 31.1579 -0.0427685 33.2848 0.00303871 35.4317C0.0488459 37.5786 0.611803 39.6839 1.64528 41.5731C2.67876 43.4622 4.15302 45.081 5.94594 46.2953C3.90659 47.8269 2.29674 49.8474 1.26881 52.1655C0.240888 54.4835 -0.171089 57.0224 0.0718905 59.5417C0.31487 62.061 1.20476 64.4773 2.65731 66.5619C4.10986 68.6465 6.07699 70.3303 8.37243 71.454C10.6679 72.5776 13.2157 73.1039 15.7746 72.983C18.3335 72.8621 20.8188 72.098 22.9952 70.7631C25.1716 69.4281 26.9671 67.5665 28.2116 65.3545C29.4561 63.1424 30.1085 60.6532 30.1069 58.1225V45.9574C33.0101 48.1083 36.6594 49.0319 40.2519 48.5249C43.8444 48.0179 47.0859 46.1219 49.2633 43.254C51.4407 40.3861 52.3756 36.7812 51.8624 33.2323C51.3492 29.6834 49.4299 26.4813 46.5267 24.3304ZM46.5267 13.5169C46.5267 15.6678 45.6617 17.7307 44.1221 19.2516C42.5824 20.7725 40.4942 21.627 38.3168 21.627H30.1069V5.40675H38.3168C40.4942 5.40675 42.5824 6.26121 44.1221 7.78215C45.6617 9.30309 46.5267 11.3659 46.5267 13.5169ZM5.47729 13.5169C5.47729 11.3659 6.34225 9.30309 7.88191 7.78215C9.42156 6.26121 11.5098 5.40675 13.6872 5.40675H24.6337V21.627H13.6872C11.5098 21.627 9.42156 20.7725 7.88191 19.2516C6.34225 17.7307 5.47729 15.6678 5.47729 13.5169ZM13.6872 43.254C11.5098 43.254 9.42156 42.3995 7.88191 40.8786C6.34225 39.3576 5.47729 37.2948 5.47729 35.1439C5.47729 32.9929 6.34225 30.9301 7.88191 29.4091C9.42156 27.8882 11.5098 27.0337 13.6872 27.0337H24.6337V43.254H13.6872ZM24.6337 58.1225C24.6337 59.9939 24.0719 61.8233 23.0195 63.3792C21.967 64.9352 20.4711 66.148 18.7209 66.8641C16.9707 67.5803 15.0449 67.7676 13.1869 67.4025C11.3289 67.0375 9.62221 66.1363 8.28268 64.8131C6.94314 63.4898 6.03091 61.8039 5.66133 59.9684C5.29175 58.133 5.48143 56.2306 6.20638 54.5017C6.93133 52.7727 8.159 51.295 9.73412 50.2553C11.3092 49.2157 13.1611 48.6607 15.0555 48.6607H24.6337V58.1225ZM38.3168 43.254C36.6931 43.254 35.1058 42.7783 33.7556 41.8872C32.4055 40.996 31.3533 39.7294 30.7319 38.2475C30.1105 36.7655 29.9479 35.1349 30.2647 33.5617C30.5815 31.9884 31.3634 30.5434 32.5115 29.4091C33.6597 28.2749 35.1226 27.5025 36.7151 27.1896C38.3077 26.8766 39.9584 27.0372 41.4586 27.6511C42.9588 28.2649 44.241 29.3044 45.1431 30.6381C46.0452 31.9718 46.5267 33.5398 46.5267 35.1439C46.5267 37.2948 45.6617 39.3576 44.1221 40.8786C42.5824 42.3995 40.4942 43.254 38.3168 43.254Z" fill="white"/>
</svg>
