<svg width="73" height="73" viewBox="0 0 73 73" fill="none" xmlns="http://www.w3.org/2000/svg">
<path d="M57.0312 21.5692V11.4062C57.0312 10.1962 56.5506 9.03571 55.6949 8.18008C54.8393 7.32444 53.6788 6.84375 52.4688 6.84375H20.5312C19.3212 6.84375 18.1607 7.32444 17.3051 8.18008C16.4494 9.03571 15.9688 10.1962 15.9688 11.4062V21.6719C15.9703 22.3799 16.1359 23.078 16.4525 23.7112C16.7692 24.3445 17.2282 24.8958 17.7938 25.3219L32.6989 36.5L17.7938 47.6781C17.2282 48.1042 16.7692 48.6555 16.4525 49.2888C16.1359 49.922 15.9703 50.6201 15.9688 51.3281V61.5938C15.9688 62.8038 16.4494 63.9643 17.3051 64.8199C18.1607 65.6756 19.3212 66.1562 20.5312 66.1562H52.4688C53.6788 66.1562 54.8393 65.6756 55.6949 64.8199C56.5506 63.9643 57.0312 62.8038 57.0312 61.5938V51.4308C57.0296 50.7255 56.8654 50.03 56.5514 49.3985C56.2373 48.7669 55.7819 48.2163 55.2205 47.7893L40.284 36.5L55.2205 25.2078C55.7822 24.7817 56.2378 24.2317 56.5519 23.6005C56.866 22.9694 57.0301 22.2742 57.0312 21.5692ZM20.5312 11.4062H52.4688V21.5692L50.8234 22.8125H22.0511L20.5312 21.6719V11.4062ZM36.5 33.6484L28.1364 27.375H44.7895L36.5 33.6484ZM52.4688 61.5938H20.5312V51.3281L34.2188 41.0625V47.9062C34.2188 48.5113 34.4591 49.0915 34.8869 49.5193C35.3147 49.9472 35.895 50.1875 36.5 50.1875C37.105 50.1875 37.6853 49.9472 38.1131 49.5193C38.5409 49.0915 38.7812 48.5113 38.7812 47.9062V41.0853L52.4688 51.4308V61.5938Z" fill="#E64500"/>
</svg>
