<svg width="106" height="104" viewBox="0 0 106 104" fill="none" xmlns="http://www.w3.org/2000/svg">
<path fill-rule="evenodd" clip-rule="evenodd" d="M17.7046 0.0112031C17.1697 0.0403145 16.0061 0.179724 15.425 0.284383C8.17578 1.59003 2.35142 7.06044 0.555345 14.2504C0.343598 15.098 0.161963 16.1373 0.0666818 17.0467C0.0123074 17.566 0.00015132 23.9523 0.00015132 52.077C0.00015132 84.9772 0.00413609 86.5042 0.0915488 87.2088C0.280901 88.7352 0.521652 89.8303 0.95705 91.1463C2.31757 95.2582 5.02227 98.7386 8.70107 101.111C10.9754 102.578 13.5722 103.513 16.4688 103.907C17.1225 103.996 18.5815 104 52.9622 104C87.343 104 88.802 103.996 89.4557 103.907C93.3915 103.372 96.6876 101.879 99.5967 99.3138C101.839 97.3369 103.688 94.6423 104.73 91.8321C105.373 90.0993 105.797 88.1378 105.882 86.5083C105.9 86.165 105.934 85.8721 105.957 85.8576C105.981 85.843 106 70.5819 106 51.9439C106 29.3655 105.983 18.0673 105.95 18.0882C105.918 18.1079 105.899 17.9997 105.899 17.7991C105.897 17.0117 105.691 15.6104 105.395 14.3713C104.106 8.99013 100.445 4.3957 95.4833 1.9318C93.5029 0.948409 91.6019 0.393666 89.1026 0.0697308C88.7294 0.0213641 80.8106 0.00617335 53.3153 0.00119443C33.8959 -0.00231114 17.8711 0.00215973 17.7046 0.0112031ZM0 52.0007C0 70.6526 0.00575017 78.283 0.0127613 68.957C0.0197725 59.631 0.0197725 44.3704 0.0127613 35.0445C0.00575017 25.7185 0 33.3488 0 52.0007ZM74.4992 23.0932C73.2844 23.2225 72.1292 23.7525 71.2692 24.5751C70.4212 25.3861 69.9429 26.2497 69.7084 27.393C69.6032 27.9061 69.6016 29.2836 69.7056 29.8237C69.9223 30.9491 70.4663 32.0147 71.1871 32.7259C71.7834 33.3141 72.7132 33.8266 73.6175 34.0654C74.1595 34.2084 75.4621 34.2635 76.0961 34.1701C77.7947 33.9199 79.2314 32.8631 79.9987 31.2994C81.1262 29.0016 80.6636 26.028 78.9265 24.4082C78.1105 23.6472 77.0846 23.2164 75.7951 23.0932C75.2053 23.0369 75.0283 23.0369 74.4992 23.0932ZM36.8264 26.6014C36.7024 26.7497 36.6953 26.7892 36.6948 27.326C36.6943 27.8926 36.5922 29.0346 36.4984 29.5239C36.3655 30.2168 35.398 33.0658 28.834 52.0924C23.1364 68.6073 21.7651 72.6311 21.7651 72.8336C21.7651 73.1608 21.8699 73.2692 22.2275 73.3121C22.3754 73.3298 24.3804 73.3375 26.683 73.329C31.319 73.3119 31.0778 73.3299 31.2798 72.9855C31.3284 72.9026 32.1304 70.4619 33.062 67.5618L34.7558 62.2888L42.9796 62.276L51.2035 62.2631L52.9844 67.4835C53.9639 70.3547 54.8093 72.7997 54.863 72.9168C54.9347 73.073 55.0178 73.1575 55.1754 73.2343C55.3874 73.3377 55.4465 73.339 60.0524 73.3378C62.7112 73.3371 64.8009 73.3164 64.9152 73.2898C65.175 73.2291 65.2581 73.1141 65.2305 72.8537C65.1991 72.5579 49.0604 26.6958 48.9443 26.5727C48.8498 26.4723 48.7743 26.4709 42.903 26.4578L36.9575 26.4445L36.8264 26.6014ZM42.7214 35.0699C42.2823 37.1282 41.9839 38.2029 40.6443 42.551C39.5593 46.0727 39.4202 46.5324 38.6848 49.0286C38.4708 49.7552 38.0831 50.9849 37.8234 51.7615C37.5636 52.538 37.351 53.1839 37.351 53.1968C37.351 53.2096 39.8729 53.2201 42.9553 53.2201C47.6846 53.2201 48.5554 53.2092 48.533 53.1504C48.5184 53.112 48.4574 52.9119 48.3975 52.7058C48.3376 52.4997 48.0307 51.5422 47.7154 50.5782C47.4002 49.6142 46.9149 48.0824 46.6372 47.1742C46.3594 46.2661 45.7445 44.2885 45.2707 42.7796C44.5577 40.5087 44.0607 38.8147 42.9716 34.9429C42.9304 34.7961 42.8761 34.6761 42.851 34.6761C42.826 34.6761 42.7677 34.8533 42.7214 35.0699ZM70.3215 38.036C70.0739 38.181 70.0867 37.2176 70.0867 55.7095C70.0867 74.7253 70.0603 73.2314 70.3989 73.4393C70.563 73.5401 70.6414 73.5418 75.0349 73.542C78.2397 73.5422 79.5504 73.5259 79.6682 73.4845C79.9973 73.369 79.9729 74.7942 79.9729 55.6818V38.2755L79.8255 38.127L79.678 37.9785L75.0463 37.98C71.8459 37.9811 70.3858 37.9984 70.3215 38.036Z" fill="#0D0D0D"/>
</svg>
