<svg width="94" height="28" viewBox="0 0 94 28" fill="none" xmlns="http://www.w3.org/2000/svg">
<path fill-rule="evenodd" clip-rule="evenodd" d="M-42.1628 0.285077C-44.3274 1.01219 -45.2042 1.72496 -50.5636 7.11643C-53.5519 10.1225 -56.2906 13.0506 -56.6497 13.6232C-58.0157 15.8018 -58.3661 18.4946 -57.6057 20.9707C-56.0291 26.1044 -50.3878 28.6508 -45.4624 26.4519C-44.1035 25.8451 -43.1884 24.9884 -33.6912 15.4302C-26.9332 8.62919 -23.1104 4.94666 -22.5703 4.71786C-21.462 4.24869 -19.9879 4.28686 -18.8792 4.81317C-17.7618 5.34387 -7.48505 15.7479 -7.13419 16.7036C-6.8258 17.5431 -6.82763 19.1961 -7.13784 20.028C-7.66835 21.451 -9.62805 22.8605 -11.0915 22.8719C-12.6853 22.8841 -13.5853 22.3525 -16.0637 19.9347C-17.4027 18.6283 -18.7705 17.4545 -19.1031 17.3263C-19.9655 16.9941 -21.6227 17.0385 -22.4817 17.417C-22.8858 17.5949 -24.5184 18.9943 -26.1099 20.5265C-29.3773 23.6726 -29.6469 23.7973 -32.3414 23.4137C-33.2849 23.2793 -34.2461 23.2679 -34.6766 23.3862C-35.5762 23.633 -36.3419 24.5739 -36.3419 25.4324C-36.3419 27.4659 -31.3895 28.7274 -28.0613 27.5418C-26.3947 26.9482 -25.0856 25.9636 -22.6614 23.4815L-20.7368 21.5109L-18.4039 23.788C-15.4631 26.6587 -14.4386 27.1386 -11.2271 27.1494C-9.22241 27.1564 -8.93502 27.0976 -7.52499 26.3941C-4.75972 25.0141 -3.02898 22.7011 -2.52245 19.708C-2.28687 18.3156 -2.30285 17.8591 -2.63498 16.4951C-3.28213 13.837 -4.04935 12.8538 -10.1366 6.88C-16.6115 0.525906 -17.1121 0.187218 -20.2791 0.0178744C-22.261 -0.0878498 -23.8189 0.271659 -25.3849 1.19703C-25.8243 1.4566 -30.7036 6.22668 -36.2277 11.797C-46.6766 22.3335 -47.2936 22.8631 -49.125 22.8696C-49.5644 22.8712 -50.4535 22.6225 -51.1007 22.3171C-53.3282 21.2661 -54.2154 18.515 -53.0565 16.2524C-52.4614 15.0906 -42.6501 5.3832 -41.4293 4.74839C-40.7226 4.38102 -40.3489 4.34054 -39.0928 4.49507C-36.3334 4.83469 -35.6411 4.74076 -34.9259 3.92967C-33.7798 2.62952 -34.1943 1.53225 -36.1611 0.660779C-37.6382 0.00607592 -40.7523 -0.188716 -42.1628 0.285077ZM20.9803 5.67192C20.3176 6.00644 19.7216 6.42286 19.6556 6.59729C19.4427 7.15946 19.1279 6.93436 19.1279 6.2202V5.52617H17.0734H15.019V13.7389V21.9516H17.0734H19.1279L19.1329 16.8042C19.1372 12.2483 19.1877 11.5455 19.5714 10.6888C19.8314 10.1089 20.2822 9.57585 20.6965 9.35862C21.5834 8.89385 23.218 8.89315 23.872 9.35746C24.9736 10.1394 25.0629 10.6754 25.0629 16.5034V21.9516H27.2315H29.4V16.7389C29.4 11.0597 29.5128 10.4115 30.6587 9.49788C31.3668 8.93341 32.8807 8.82167 33.8374 9.2633C35.1385 9.8641 35.2146 10.2338 35.2926 16.3415L35.3645 21.9516H37.4176H39.4709L39.4003 15.6475L39.3298 9.34335L38.6653 8.12787C37.5002 5.99673 35.8656 5.09078 33.1542 5.07366C31.8665 5.06557 31.3068 5.18332 30.3588 5.6622C29.7068 5.99141 28.9878 6.4999 28.7609 6.79232L28.3482 7.32418L27.5905 6.51702C26.5684 5.42855 25.6028 5.06348 23.7453 5.06348C22.5179 5.06348 21.9278 5.19327 20.9803 5.67192ZM47.6347 5.38297C43.0627 7.0387 40.8437 12.2911 42.6498 17.1831C43.2816 18.8944 45.0254 20.8162 46.7052 21.6522C47.8359 22.2149 48.2703 22.2984 50.0585 22.2975C52.3478 22.2961 53.6563 21.8498 54.7951 20.6817L55.4229 20.0377V20.9948V21.9516H57.5915H59.76V13.7389V5.52617H57.5915H55.4229V6.33541V7.14489L54.3386 6.3685C53.7421 5.94167 52.9051 5.47319 52.4784 5.32791C51.4487 4.97696 48.6684 5.00866 47.6347 5.38297ZM82.4355 5.47852C80.0601 6.33657 77.8763 8.64978 77.193 11.0317C76.6436 12.9477 76.8456 15.8994 77.6418 17.5852C78.3981 19.1873 80.1092 20.8506 81.8525 21.6786C83.0313 22.2385 83.412 22.2986 85.7829 22.2981C88.1815 22.2979 88.5285 22.2415 89.8043 21.6441C90.5724 21.2846 91.6396 20.5374 92.176 19.9835L93.1512 18.9765L92.3774 18.4995C91.9519 18.2369 91.1723 17.7902 90.645 17.5065L89.6865 16.9909L89.1613 17.4894C87.4554 19.1091 83.2367 18.7919 81.9755 16.949C80.9013 15.3798 80.5495 15.474 87.4917 15.474H93.7516L93.9038 14.6515C94.4916 11.477 92.3169 7.34847 89.2578 5.83178C87.5492 4.9846 84.2728 4.81479 82.4355 5.47852ZM63.1841 7.4926V9.45902H66.4881H69.7921L66.2598 14.3552L62.7275 19.2511V20.6015V21.9516H69.3474H75.9672V19.9852V18.0187H72.3149C70.3061 18.0187 68.6626 17.9567 68.6626 17.8809C68.6626 17.805 70.2034 15.6186 72.0866 13.0222L75.5107 8.30114V6.91377V5.52617H69.3474H63.1841V7.4926ZM83.6049 9.18696C82.7428 9.59574 81.4457 10.8704 81.4457 11.3086C81.4457 11.4157 81.3834 11.6679 81.3072 11.8692C81.1839 12.1949 81.6368 12.2351 85.416 12.2351C88.4906 12.2351 89.6635 12.1609 89.6635 11.9663C89.6635 11.2876 88.4821 9.72368 87.6738 9.33224C86.4065 8.71849 84.7193 8.65811 83.6049 9.18696ZM48.9172 9.43357C47.2353 10.2204 46.2879 11.7949 46.2971 13.7893C46.311 16.8491 49.0293 19.0022 51.9417 18.2603C54.1421 17.6997 55.4083 16.0285 55.4179 13.6718C55.432 10.2396 51.9906 7.996 48.9172 9.43357Z" fill="#FDF2E0"/>
</svg>
