<svg width="105" height="102" viewBox="0 0 105 102" fill="none" xmlns="http://www.w3.org/2000/svg">
<path fill-rule="evenodd" clip-rule="evenodd" d="M17.3441 0.0334854C13.5032 0.283472 9.93772 1.67708 6.84813 4.13599C6.16287 4.6814 4.64235 6.21021 4.0693 6.93003C1.78393 9.80069 0.453371 13.0694 0.074417 16.7442C-0.0248056 17.7064 -0.0248056 84.2817 0.074417 85.2438C0.617693 90.5117 3.22716 95.143 7.42648 98.2923C10.0822 100.284 12.8919 101.397 16.5197 101.893C17.1038 101.973 19.39 101.98 51.8172 101.995C75.9797 102.007 86.7627 101.996 87.3895 101.959C91.3439 101.726 94.873 100.387 97.9562 97.9524C98.7448 97.3296 100.242 95.8392 100.864 95.058C102.554 92.9357 103.685 90.6725 104.351 88.0835C104.665 86.8631 104.901 85.3187 104.901 84.4841C104.901 84.2766 104.922 84.1229 104.951 84.1229C104.984 84.1229 105 73.0265 105 50.9317C104.999 29.4849 104.982 17.767 104.951 17.8153C104.917 17.8672 104.902 17.776 104.901 17.5163C104.901 17.3108 104.866 16.8401 104.824 16.4702C104.419 12.92 103.1 9.74101 100.865 6.93003C100.254 6.16204 98.7514 4.66371 97.9812 4.05479C95.163 1.82688 92.168 0.587262 88.4137 0.0948611C87.7735 0.0109179 85.9631 0.00613534 52.8414 0.000456098C33.6476 -0.00283189 17.6738 0.0120139 17.3441 0.0334854ZM0.00746918 50.994C0.00746918 69.256 0.0131647 76.7269 0.0201093 67.5958C0.0270539 58.4649 0.0270539 43.5232 0.0201093 34.3922C0.0131647 25.2612 0.00746918 32.732 0.00746918 50.994ZM33.3316 25.9681C32.3134 25.9982 26.6489 26.1396 25.2403 26.17C23.8695 26.1997 23.8417 26.2024 23.729 26.3147L23.6142 26.4292V49.1258V71.8224L23.7328 71.9407C23.8044 72.0121 23.9382 72.0714 24.07 72.0902C24.1903 72.1073 26.1936 72.1148 28.5219 72.1067L32.7552 72.0919L32.9185 71.929L33.0818 71.7662L33.0948 64.6139L33.1078 57.4616L34.119 57.5034C35.8809 57.576 39.4034 57.547 40.4511 57.4512C42.2671 57.285 43.4206 57.0992 44.8617 56.7406C48.0029 55.9589 50.4464 54.633 52.4667 52.6138C54.9393 50.1427 56.2317 47.2367 56.5881 43.3469C56.6722 42.4304 56.6594 40.528 56.5637 39.7102C56.0218 35.0774 53.8809 31.4743 50.2333 29.0566C48.1002 27.6426 45.3934 26.6715 42.3746 26.2372C40.7293 26.0004 40.2264 25.9749 36.9788 25.9631C35.2751 25.9569 33.6339 25.9591 33.3316 25.9681ZM34.4557 34.5523C33.755 34.5703 33.1761 34.5893 33.1693 34.5944C33.1624 34.5997 33.1568 37.8975 33.1568 41.9229V49.2419L33.544 49.2835C34.1702 49.3508 38.1438 49.333 38.7975 49.2599C41.2857 48.9819 43.2633 48.3303 44.5479 47.3653C46.4001 45.9738 47.113 44.4014 47.1152 41.703C47.1158 41.0052 47.0931 40.6386 47.029 40.3081C46.6832 38.5271 45.8602 37.1713 44.5258 36.1848C43.5506 35.4637 41.9008 34.8759 40.1513 34.6259C39.4958 34.5323 36.6629 34.4956 34.4557 34.5523ZM73.3504 36.7977C70.6252 37.0187 68.5904 37.6014 66.6566 38.7146C64.8138 39.7754 63.3572 41.3044 62.4807 43.0979C61.7225 44.6492 61.3914 46.2295 61.4487 48.0236C61.4884 49.27 61.6655 50.123 62.1295 51.3019C62.7642 52.9148 64.3014 54.7224 66.0062 55.8607C67.7412 57.0192 69.4885 57.9032 71.696 58.7394C72.9365 59.2094 74.0965 59.6963 74.8653 60.0698C76.6724 60.9478 77.488 61.936 77.2707 62.9844C77.1442 63.5943 76.7575 64.1254 76.2324 64.4102C74.8392 65.1659 71.7266 65.2916 68.6791 64.7153C66.2246 64.2511 64.2404 63.5628 62.309 62.5057C62.0068 62.3403 61.7123 62.2045 61.6548 62.204C61.5972 62.2035 61.5073 62.2502 61.4549 62.3079C61.3633 62.4088 61.3592 62.5599 61.3448 66.3805C61.3347 69.0625 61.347 70.4071 61.3826 70.5296C61.4654 70.8139 61.7489 71.0251 62.4368 71.3151C64.5662 72.2126 67.3849 72.7904 70.4776 72.9632C75.923 73.2676 80.3121 72.1816 83.1207 69.835C85.6028 67.7611 86.8659 64.8644 86.7507 61.5102C86.6816 59.4972 86.1726 57.9412 85.0827 56.411C84.6921 55.8625 83.5547 54.7246 82.9657 54.293C81.4331 53.1699 78.6718 51.7713 76.2232 50.8779C74.7563 50.3427 72.6628 49.3722 71.9583 48.9007C71.1315 48.3474 70.6071 47.6622 70.544 47.0529C70.4654 46.2932 70.8822 45.5085 71.5813 45.0999C71.8374 44.9502 72.5267 44.758 73.2505 44.6345C74.2245 44.4683 76.5556 44.5544 78.2024 44.8176C80.2523 45.1452 81.7954 45.5832 83.2427 46.2483C84.2169 46.696 84.1607 46.6783 84.4845 46.638C84.7368 46.6065 84.785 46.5823 84.8703 46.4441C84.9649 46.2906 84.9673 46.1786 84.9545 42.4751C84.9403 38.3492 84.9518 38.5228 84.6775 38.2754C84.4292 38.0513 82.6985 37.4997 81.5436 37.2766C80.8061 37.1342 79.6292 36.9801 78.4214 36.8681C77.4462 36.7776 74.1609 36.732 73.3504 36.7977Z" fill="#0D0D0D"/>
</svg>
