<svg width="65" height="64" viewBox="0 0 65 64" fill="none" xmlns="http://www.w3.org/2000/svg">
<path fill-rule="evenodd" clip-rule="evenodd" d="M0.96306 2.10853C1.47315 3.26797 3.58968 8.04167 5.66662 12.7162L9.44319 21.2153L4.7216 42.4747C2.12454 54.1673 0 63.7936 0 63.867C0 63.94 2.1065 64 4.68151 64H9.36252L17.6958 43.0388C22.2791 31.5103 26.2867 21.3408 26.6014 20.4398C26.9161 19.5389 27.2563 18.884 27.3575 18.9837C27.5053 19.1305 20.3645 57.6352 19.2617 62.6357L18.961 64H23.7122H28.4629L29.0286 62.3876C35.9208 42.7446 45.3575 16.5135 45.6531 16.1766C45.8671 15.9325 45.9422 16.1558 45.82 16.6727C45.6977 17.1897 44.0191 27.4357 42.0895 39.4419C40.1599 51.4481 38.4507 61.8855 38.2914 62.6357L38.0018 64H42.777H47.5522L50.8142 53.9535C52.6085 48.4282 56.5344 36.3758 59.5383 27.1717L65 10.436L56.4477 5.21823L47.8954 0H43.239C40.678 0 38.588 0.167194 38.5945 0.372093C38.601 0.576992 40.1649 3.41929 42.069 6.68924C43.9735 9.9587 45.4522 12.7122 45.355 12.8084C45.2583 12.9042 41.4977 10.0619 36.9981 6.49129L28.8176 0H23.9993H19.1805L23.4572 8.31008L27.7333 16.6202L24.765 13.9446C23.1325 12.4731 19.0643 8.73327 15.7246 5.63448L9.65264 0H4.84386H0.0355757L0.96306 2.10853Z" fill="#FDF2E0"/>
</svg>
